<svg xmlns="http://www.w3.org/2000/svg" viewBox="0 0 800 600">
  <!-- Presentation Screen -->
  <rect x="300" y="100" width="300" height="200" fill="#2d907c"/>
  <rect x="310" y="110" width="280" height="180" fill="#fff"/>
  <path d="M280 300 L620 300 L650 350 L250 350 Z" fill="#2d907c"/>
  
  <!-- Graph on Screen -->
  <polyline points="330,200 380,160 430,220 480,180 530,240" 
    fill="none" stroke="#2d907c" stroke-width="3"/>
  
  <!-- Calendar -->
  <rect x="100" y="150" width="120" height="120" fill="#FF6B6B"/>
  <rect x="110" y="160" width="100" height="30" fill="#fff"/>
  <line x1="130" y1="210" x2="190" y2="210" stroke="#fff" stroke-width="2"/>
  <line x1="130" y1="230" x2="190" y2="230" stroke="#fff" stroke-width="2"/>
  <line x1="130" y1="250" x2="190" y2="250" stroke="#fff" stroke-width="2"/>
  
  <!-- People Icons (Audience) -->
  <g transform="translate(350,400)">
    <!-- Person 1 -->
    <circle cx="0" cy="0" r="15" fill="#4CAF50"/>
    <path d="M-10,20 L10,20 L0,40 Z" fill="#4CAF50"/>
    <!-- Person 2 -->
    <circle cx="40" cy="0" r="15" fill="#4CAF50"/>
    <path d="M30,20 L50,20 L40,40 Z" fill="#4CAF50"/>
    <!-- Person 3 -->
    <circle cx="80" cy="0" r="15" fill="#4CAF50"/>
    <path d="M70,20 L90,20 L80,40 Z" fill="#4CAF50"/>
  </g>
  
  <!-- Clipboard -->
  <rect x="650" y="200" width="80" height="100" fill="#FFB800"/>
  <rect x="660" y="210" width="60" height="80" fill="#fff"/>
  <line x1="670" y1="230" x2="710" y2="230" stroke="#333" stroke-width="2"/>
  <line x1="670" y1="250" x2="710" y2="250" stroke="#333" stroke-width="2"/>
  <line x1="670" y1="270" x2="710" y2="270" stroke="#333" stroke-width="2"/>
  
  <!-- Speech Bubbles -->
  <path d="M150 400 
           C130 400, 130 350, 150 350
           L200 350
           C220 350, 220 400, 200 400
           Z" fill="#1E88E5"/>
  <circle cx="175" cy="375" r="3" fill="#fff"/>
  <circle cx="185" cy="375" r="3" fill="#fff"/>
  <circle cx="165" cy="375" r="3" fill="#fff"/>
  
  <!-- Certificate -->
  <g transform="translate(600,400)">
    <rect x="0" y="0" width="100" height="70" fill="#fff" stroke="#2d907c" stroke-width="2"/>
    <path d="M10,20 L90,20 M10,35 L90,35 M30,50 L70,50" stroke="#2d907c" stroke-width="2"/>
    <circle cx="50" cy="90" r="15" fill="#FFB800"/>
  </g>
  
  <!-- Clock -->
  <circle cx="100" cy="500" r="30" fill="none" stroke="#333" stroke-width="3"/>
  <line x1="100" y1="500" x2="100" y2="480" stroke="#333" stroke-width="3"/>
  <line x1="100" y1="500" x2="115" y2="500" stroke="#333" stroke-width="3"/>
  
  <!-- Training Materials -->
  <g transform="translate(200,500)">
    <rect x="0" y="0" width="60" height="80" fill="#4267B2"/>
    <rect x="10" y="-5" width="60" height="80" fill="#1E88E5"/>
    <rect x="20" y="-10" width="60" height="80" fill="#2d907c"/>
  </g>
  
  <!-- Stars/Rating -->
  <g transform="translate(500,500)">
    <path d="M0,0 L5,10 L15,12 L7,20 L9,30 L0,25 L-9,30 L-7,20 L-15,12 L-5,10 Z" fill="#FFB800"/>
    <path d="M30,0 L35,10 L45,12 L37,20 L39,30 L30,25 L21,30 L23,20 L15,12 L25,10 Z" fill="#FFB800"/>
    <path d="M60,0 L65,10 L75,12 L67,20 L69,30 L60,25 L51,30 L53,20 L45,12 L55,10 Z" fill="#FFB800"/>
  </g>
</svg>